<?xml version="1.0" encoding="utf-8"?>
<!-- Generator: Adobe Illustrator 23.0.4, SVG Export Plug-In . SVG Version: 6.00 Build 0)  -->
<svg version="1.1" id="Layer_1" xmlns="http://www.w3.org/2000/svg" xmlns:xlink="http://www.w3.org/1999/xlink" x="0px" y="0px"
	 viewBox="0 0 491 210" style="enable-background:new 0 0 491 210;" xml:space="preserve">
<style type="text/css">
	.st0{fill:#FFFFFF;}
</style>
<polyline class="st0" points="387.28,20.62 376.74,49.67 392.8,49.67 396.76,38.53 412.48,38.52 412.46,118.14 403.55,118.16 
	397.08,136.07 441.3,136.09 447.95,118.16 435.55,118.14 435.53,38.54 454.03,38.54 453.96,49.65 465.12,49.63 475.64,20.59 
	387.28,20.62 "/>
<path class="st0" d="M209.1,20.61l-6.64,17.98l11.25-0.03v52.2c0,9.6-1.74,14.94-6.44,19.7c-3.69,3.74-9.96,6.06-16.37,6.06
	c-7.77,0-14.73-2.6-19.09-7.13c-4.38-4.34-6.5-11.49-6.5-21.89l-0.02-66.89l-32.59,0.08l-6.63,17.9l13.88-0.08V88.2
	c0,46.66,36.38,50.29,47.54,50.29c28.84,0,47.47-18.63,47.47-47.46l0.12-52.45h8.28l6.43-17.98H209.1"/>
<path class="st0" d="M366.54,38.5l0.06,97.6l-13.62,0.01c0,0-63.38-66.79-67.62-71.27c0.02,9.46-0.04,53.33-0.04,53.33h12.5
	l-6.49,18.01h-40.87l6.51-18.01h7.03l0-79.59h-14.88l6.46-17.98h25.09c0,0,48.46,50.56,65.26,68.31c0-5.47-0.05-50.34-0.05-50.34
	l-12.18,0l6.41-18.03h41.87l-6.47,18.03L366.54,38.5"/>
<line x1="64.42" y1="52.17" x2="64.42" y2="52.17"/>
<g>
	<line x1="63.29" y1="52.93" x2="63.29" y2="52.93"/>
	<path class="st0" d="M158.79,180.19l-9.32,5.32l6.87,12.55c0,0,7.05-3.04,9.8,0.47c2.27,2.9,0.41,6.32-1.84,9.17
		c-0.13,0.16,0.85-4.28-2.8-4.81c-4.19-0.61-9.74,2.14-12.22,7.17c0,0-2.42-3.95,0.43-7.31c0,0-14.9-8.79-26.91-25.38l-11.93-5.2
		c0,0-18.52,5.85-22.24,6.9c-9.38,2.65-12.03,0.87-14.99-1.98c-2.85-2.75-7.16-6.99-7.16-6.99s3.73,2.68,8.93,1.53l22.78-4.97
		l-3.44-1.55c0,0-21.71,3.62-25.38,3.92c-3.67,0.31-5.39-1.51-7.53-3.34c0,0-7.72-7.53-7.67-7.5c4.59,2.55,5.55,2.18,8.99,2.03
		l17.3-1.35l-3.9-1.68c0,0-16.46-0.02-19.82-0.02c-4.74,0-7.98-4.07-9.21-5.2l-7.2-6.73c0,0,2.65,2.35,10.57,2.35l53.75-0.01
		c-41.4-24.62-91.66-54.61-93.7-55.84c-3.47-2.09-11.31-6.09-8.56-11.82l6.57-14.06c0,0-0.31,5.66,3.67,8.1
		c3.3,2.03,93.13,61.81,93.13,61.81l-0.82-3.87c0,0-92.68-64.56-96.04-66.85C5.55,62.74-2.5,57.75,0.76,49.95l6.73-13.86
		c0,0-0.54,5.63,4.08,9.12l92.98,71.39l-0.08-3.15c0,0-93.51-75.67-96.36-77.97c-2.85-2.29-6.93-6.62-4.28-13.45l9.89-21.76
		c0,0-2.29,7.19,3.52,12.84l120.72,112.67C137.94,125.78,163.89,147.78,158.79,180.19 M155.68,142.82c0,0-5.31-13.07-16.16-22.96
		c-5.07-4.62-67.13-62.65-70.28-65.68c-2.96-2.85-7.25-5.61-5.88-9.79l5.99-13.48c0.02-0.04,0.03-0.07,0.03-0.07l-0.03,0.07
		c-0.21,0.5-1.44,3.97,3.05,8.56l55.76,55.67l0.39-3.38c0,0-58.9-61.53-60.9-63.83c-2-2.31-4.72-4.92-3.27-8.95L70.92,4.3
		c0.01-0.01,0.01-0.02,0.01-0.02L70.92,4.3c-0.14,0.32-1.85,4.54,3,9.91c0,0,56.06,62.98,57.62,64.79
		C137.61,85.99,161.93,110.74,155.68,142.82C155.66,142.74,156.84,146.48,155.68,142.82z"/>
</g>
<path d="M183.38,177.32c0,0,0.01,0,0.02,0.01c0,0-0.01-0.01-0.03-0.03c0,0,0,0.01,0,0.01L183.38,177.32"/>
<g>
	<path class="st0" d="M183.29,177.25c-1.58-0.57-4.43,0.62-4.43,0.62c-0.66-4.04-5.23-9.63-5.23-9.63s9.1,8.46,9.65,8.99
		c0.1-0.2,2.92-6.32-2.8-11.65c-8.54-7.95-24.91-22.91-24.88-22.83c1.16,3.66,7.71,15.48,4.25,37.39l8.43,1.59l1.01,1.71
		c0,0,9.64,1.28,11.14,2.69c0,0,3.32,2.31-0.24,5.49c0,0,5.44-1.06,8.51-4.06c0,0,2.8-2.41-0.5-5.75L183.29,177.25"/>
	<path class="st0" d="M137.94,125.78L17.22,13.11c-5.81-5.66-3.52-12.84-3.52-12.84L3.82,22.03C1.17,28.85,5.25,33.19,8.1,35.48
		c2.85,2.29,96.36,77.97,96.36,77.97l0.08,3.15L11.56,45.21c-4.61-3.49-4.08-9.12-4.08-9.12L0.76,49.95
		c-3.26,7.8,4.79,12.79,8.15,15.08c3.36,2.29,96.04,66.85,96.04,66.85l0.82,3.87c0,0-89.83-59.78-93.13-61.81
		c-3.97-2.44-3.67-8.1-3.67-8.1L2.39,79.91c-2.75,5.73,5.09,9.73,8.56,11.82c2.03,1.23,52.29,31.22,93.7,55.84l-53.75,0.01
		c-7.92,0-10.57-2.35-10.57-2.35l7.2,6.73c1.22,1.12,4.47,5.2,9.21,5.2c3.36,0,19.82,0.02,19.82,0.02l3.9,1.68l-17.3,1.35
		c-3.44,0.15-4.4,0.52-8.99-2.03c-0.04-0.02,7.67,7.5,7.67,7.5c2.14,1.83,3.86,3.65,7.53,3.34c3.67-0.3,25.38-3.92,25.38-3.92
		l3.44,1.55l-22.78,4.97c-5.2,1.15-8.93-1.53-8.93-1.53s4.31,4.24,7.16,6.99c2.95,2.85,5.61,4.63,14.99,1.98
		c3.72-1.05,22.24-6.9,22.24-6.9l11.93,5.2c12,16.59,26.91,25.38,26.91,25.38c-2.85,3.36-0.43,7.31-0.43,7.31
		c2.48-5.02,8.03-7.78,12.22-7.17c3.65,0.53,2.67,4.97,2.8,4.81c2.24-2.85,4.1-6.28,1.84-9.17c-2.75-3.51-9.8-0.47-9.8-0.47
		l-6.87-12.55l9.32-5.32C163.89,147.78,137.94,125.78,137.94,125.78"/>
</g>
<path class="st0" d="M131.54,79c-1.56-1.8-57.62-64.79-57.62-64.79c-4.86-5.38-3.15-9.59-3-9.91l-6.54,14.67
	c-1.45,4.03,1.26,6.64,3.27,8.95c2,2.31,60.9,63.83,60.9,63.83l-0.39,3.38L72.39,39.47c-4.49-4.59-3.26-8.07-3.05-8.56l-5.99,13.48
	c-1.36,4.18,2.92,6.94,5.88,9.79c3.15,3.03,65.21,61.06,70.28,65.68c10.86,9.89,16.16,22.96,16.16,22.96
	C161.93,110.74,137.61,85.99,131.54,79"/>
<path d="M70.92,4.3l0.01-0.02C70.93,4.28,70.93,4.29,70.92,4.3"/>
<path d="M69.34,30.9l0.03-0.07C69.37,30.84,69.36,30.86,69.34,30.9"/>
<path class="st0" d="M481.57,19.55c3.25,0,5.83,2.72,5.83,6.12c0,3.47-2.58,6.16-5.86,6.16c-3.26,0-5.9-2.69-5.9-6.16
	c0-3.4,2.64-6.12,5.9-6.12H481.57 M481.54,20.51c-2.62,0-4.77,2.31-4.77,5.16c0,2.93,2.15,5.22,4.8,5.22
	c2.65,0.01,4.77-2.29,4.77-5.18c0-2.89-2.12-5.2-4.77-5.2H481.54z M480.44,29.24h-1.06v-6.83c0.55-0.06,1.06-0.16,1.88-0.16
	c1,0,1.64,0.24,2.05,0.53c0.39,0.29,0.62,0.75,0.62,1.41c0,0.9-0.58,1.46-1.29,1.67v0.04c0.57,0.12,0.97,0.65,1.1,1.66
	c0.18,1.06,0.31,1.47,0.42,1.68h-1.09c-0.18-0.2-0.31-0.84-0.47-1.73c-0.15-0.88-0.57-1.2-1.43-1.2h-0.73V29.24z M480.44,25.46h0.76
	c0.88,0,1.62-0.33,1.62-1.17c0-0.6-0.42-1.2-1.62-1.2c-0.33,0-0.56,0.01-0.76,0.05V25.46z"/>
</svg>
